name D:\school\WTK\thesis\model\3dpredictsim\Results\Final\Fal_s1_bCst_PF_None_ls150_MT_k2000_MTP_T17_ig24.mot
datacolumns 128
datarows 4
range 0.55593422 0.58929028
endheader
time	pelvis_tilt	pelvis_list	pelvis_rotation	pelvis_tx	pelvis_ty	pelvis_tz	hip_flexion_l	hip_adduction_l	hip_rotation_l	hip_flexion_r	hip_adduction_r	hip_rotation_r	knee_angle_l	knee_angle_r	ankle_angle_l	ankle_angle_r	subtalar_angle_l	subtalar_angle_r	mtj_angle_l	mtj_angle_r	mtp_angle_l	mtp_angle_r	lumbar_extension	lumbar_bending	lumbar_rotation	arm_flex_l	arm_add_l	arm_rot_l	arm_flex_r	arm_add_r	arm_rot_r	elbow_flex_l	elbow_flex_r	pro_sup_l	pro_sup_r	glut_med1_l/activation	glut_med2_l/activation	glut_med3_l/activation	glut_min1_l/activation	glut_min2_l/activation	glut_min3_l/activation	semimem_l/activation	semiten_l/activation	bifemlh_l/activation	bifemsh_l/activation	sar_l/activation	add_long_l/activation	add_brev_l/activation	add_mag1_l/activation	add_mag2_l/activation	add_mag3_l/activation	tfl_l/activation	pect_l/activation	grac_l/activation	glut_max1_l/activation	glut_max2_l/activation	glut_max3_l/activation	iliacus_l/activation	psoas_l/activation	quad_fem_l/activation	gem_l/activation	peri_l/activation	rect_fem_l/activation	vas_med_l/activation	vas_int_l/activation	vas_lat_l/activation	med_gas_l/activation	lat_gas_l/activation	soleus_l/activation	tib_post_l/activation	flex_dig_l/activation	flex_hal_l/activation	tib_ant_l/activation	per_brev_l/activation	per_long_l/activation	per_tert_l/activation	ext_dig_l/activation	ext_hal_l/activation	ercspn_l/activation	intobl_l/activation	extobl_l/activation	glut_med1_r/activation	glut_med2_r/activation	glut_med3_r/activation	glut_min1_r/activation	glut_min2_r/activation	glut_min3_r/activation	semimem_r/activation	semiten_r/activation	bifemlh_r/activation	bifemsh_r/activation	sar_r/activation	add_long_r/activation	add_brev_r/activation	add_mag1_r/activation	add_mag2_r/activation	add_mag3_r/activation	tfl_r/activation	pect_r/activation	grac_r/activation	glut_max1_r/activation	glut_max2_r/activation	glut_max3_r/activation	iliacus_r/activation	psoas_r/activation	quad_fem_r/activation	gem_r/activation	peri_r/activation	rect_fem_r/activation	vas_med_r/activation	vas_int_r/activation	vas_lat_r/activation	med_gas_r/activation	lat_gas_r/activation	soleus_r/activation	tib_post_r/activation	flex_dig_r/activation	flex_hal_r/activation	tib_ant_r/activation	per_brev_r/activation	per_long_r/activation	per_tert_r/activation	ext_dig_r/activation	ext_hal_r/activation	ercspn_r/activation	intobl_r/activation	extobl_r/activation	
          0.55593422	         -2.92990502	          1.99672022	         -4.79436767	          0.69491778	          0.92063775	          0.00189465	         29.97212918	          3.14001546	         -2.05681215	        -17.42165443	         -0.95747785	          6.65239418	        -13.15604022	         -5.02473292	          6.35093426	         -0.07929695	         -3.69353429	          8.92455398	          0.06204669	          1.47967694	          0.29647772	         20.24916951	         -2.31687136	         -0.19546415	          1.88068194	         -4.16919378	        -13.47456148	          6.90639207	          5.45039894	        -13.45152066	         16.38561745	         16.85441800	         32.74161679	         86.51662706	         86.51662706	          0.07024531	          0.05000550	          0.05926279	          0.05000356	          0.05000392	          0.05001887	          0.07850131	          0.05931846	          0.22445680	          0.05019327	          0.05000737	          0.13299053	          0.17109993	          0.15818961	          0.14134797	          0.11474189	          0.05015984	          0.05017765	          0.09698489	          0.05926714	          0.08959666	          0.09796788	          0.05000078	          0.05000196	          0.17583652	          0.05000191	          0.05000695	          0.05000076	          0.05000527	          0.05000752	          0.05000330	          0.05000028	          0.05000064	          0.05000011	          0.05926525	          0.05001980	          0.05553951	          0.45618468	          0.26821665	          0.19995136	          0.08486185	          0.42801351	          0.15833550	          0.07024824	          0.12606131	          0.11948912	          0.32634728	          0.11698931	          0.08327190	          0.35826436	          0.23179559	          0.12607278	          0.05000482	          0.05000147	          0.05000122	          0.07278169	          0.11702002	          0.05000066	          0.05000051	          0.05000077	          0.05000218	          0.05000196	          0.36225410	          0.05000270	          0.05000247	          0.05017450	          0.05002362	          0.05000457	          0.41998604	          0.64177628	          0.05000173	          0.05002817	          0.06095369	          0.24213796	          0.05000176	          0.05000182	          0.05000180	          0.32769750	          0.45056484	          0.31631808	          0.29367249	          0.32280488	          0.39685522	          0.05000032	          0.05892005	          0.12354522	          0.05000142	          0.05000040	          0.05000146	          0.05000008	          0.05000008	          0.05000013	
          0.56705291	         -2.92950314	          2.09752887	         -5.10032447	          0.71133263	          0.91956246	          0.00168526	         29.43240188	          3.50583551	         -1.86369931	        -17.35353062	         -1.26298243	          6.44740870	        -12.70867754	         -6.82016032	          5.99639367	         -0.68879248	         -4.09693998	          9.87767563	          0.06424124	          1.33891970	          0.31752369	         21.34490537	         -2.14648310	         -0.40671181	          1.95425096	         -4.99843223	        -13.47573419	          6.57529594	          5.24458174	        -13.46051799	         16.74867090	         16.47006213	         33.90624679	         86.51662706	         86.51662706	          0.05926442	          0.05926321	          0.05000111	          0.05926572	          0.05926554	          0.05002896	          0.07137164	          0.05004520	          0.21522660	          0.05000095	          0.05000274	          0.13851250	          0.31240330	          0.14195117	          0.15159524	          0.11755859	          0.05000084	          0.08323911	          0.08182639	          0.05000317	          0.13282243	          0.15815425	          0.05820793	          0.05000265	          0.17568990	          0.25090705	          0.13061975	          0.05991373	          0.15724540	          0.15366333	          0.13711751	          0.05000259	          0.05000336	          0.05280923	          0.05000017	          0.05000275	          0.05000118	          0.59181043	          0.28070585	          0.16869184	          0.28356221	          0.50152492	          0.25218163	          0.05926569	          0.10635296	          0.10080825	          0.27532897	          0.09869934	          0.07025333	          0.30225421	          0.19555706	          0.10636282	          0.05000590	          0.05000176	          0.05000125	          0.06140318	          0.09872624	          0.10815711	          0.07435272	          0.05002110	          0.05002487	          0.05000626	          0.30562055	          0.09288912	          0.05004387	          0.05002955	          0.05002130	          0.05001974	          0.35888081	          0.60859955	          0.05004264	          0.05000636	          0.05142457	          0.20428337	          0.05925802	          0.05031447	          0.05013925	          0.27646539	          0.38012399	          0.29188669	          0.28784544	          0.28672794	          0.37588064	          0.05000024	          0.05924914	          0.12169020	          0.05000122	          0.05000035	          0.05000125	          0.05000029	          0.05000180	          0.05000101	
          0.57817159	         -2.92444843	          2.19753977	         -5.38163585	          0.72809821	          0.91851432	          0.00147153	         28.78689764	          3.84825294	         -1.61956878	        -17.18438557	         -1.56398679	          6.23900020	        -12.85467179	         -8.80471455	          5.39011047	         -1.43424235	         -4.48053029	         10.81029774	          0.05154485	          1.16420398	          0.34785369	         22.36350055	         -1.94969748	         -0.62615868	          2.01993533	         -5.87031948	        -13.47898568	          6.27638364	          4.95301864	        -13.47233233	         17.03785150	         16.14830254	         35.05977624	         86.51662706	         86.51662706	          0.05000009	          0.05000033	          0.11233571	          0.05000033	          0.05000038	          0.05000057	          0.06021379	          0.05000284	          0.18157838	          0.05000170	          0.05001429	          0.11685834	          0.26356367	          0.32480741	          0.21801254	          0.13519976	          0.05000401	          0.07023455	          0.12000077	          0.08379757	          0.12039544	          0.13342933	          0.05000045	          0.05000670	          0.38492079	          0.21168048	          0.11019890	          0.05928375	          0.15356866	          0.15989850	          0.13326809	          0.05000089	          0.05926497	          0.05000013	          0.07022043	          0.05001411	          0.05926590	          0.49928764	          0.32518415	          0.20910989	          0.23923091	          0.45568171	          0.21275595	          0.05000016	          0.08972580	          0.08504794	          0.23228443	          0.08326883	          0.05927012	          0.25500081	          0.16498401	          0.08973430	          0.05001593	          0.05000271	          0.05000338	          0.05180371	          0.08329245	          0.19687449	          0.09939438	          0.07019953	          0.05925430	          0.05927056	          0.25784069	          0.07838279	          0.05000911	          0.05001707	          0.05001280	          0.05001860	          0.30277390	          0.56225300	          0.05000230	          0.05925647	          0.05926480	          0.17234736	          0.12232281	          0.15519844	          0.14650504	          0.23324286	          0.32069557	          0.24625324	          0.24285003	          0.24190348	          0.31711833	          0.05000018	          0.05000063	          0.12664524	          0.05000053	          0.05000017	          0.05000080	          0.05943583	          0.05926730	          0.05396491	
          0.58929028	         -2.91557187	          2.29934902	         -5.63408009	          0.74511454	          0.91749754	          0.00127168	         28.01509363	          4.11371940	         -1.35499899	        -16.93315904	         -1.85976529	          6.01975855	        -13.30882239	        -10.92092584	          4.91228587	         -2.35520406	         -4.88398338	         11.68706504	          0.03797340	          0.97118159	          0.25998681	         23.23187712	         -1.73565569	         -0.85456499	          2.07445010	         -6.75832260	        -13.48873065	          6.03592135	          4.58988190	        -13.48311964	         17.25424557	         15.86479540	         36.19778250	         86.51662706	         86.51662706	          0.24646451	          0.24119015	          0.29750976	          0.35901331	          0.22447873	          0.18931271	          0.07101548	          0.05000468	          0.15549583	          0.05000901	          0.05001996	          0.09858899	          0.22235858	          0.27402760	          0.18392923	          0.12228596	          0.05000290	          0.05927778	          0.10124175	          0.15821320	          0.14767190	          0.11256981	          0.05510152	          0.05000374	          0.32474272	          0.17858714	          0.23574344	          0.05001554	          0.12956038	          0.13490069	          0.11243348	          0.05000369	          0.05000353	          0.05220427	          0.05924300	          0.05000212	          0.05000392	          0.58670908	          0.34791522	          0.17641890	          0.38075636	          0.53821665	          0.21457857	          0.06577084	          0.10689350	          0.07175159	          0.33286603	          0.07025073	          0.05000406	          0.32522631	          0.13919087	          0.07570548	          0.05000910	          0.05000136	          0.05000107	          0.05000126	          0.07027240	          0.16609719	          0.08388296	          0.05922603	          0.05001049	          0.05000613	          0.23583035	          0.08314338	          0.05001282	          0.05001317	          0.05000733	          0.05000451	          0.25543894	          0.52509000	          0.05000152	          0.05000380	          0.05000120	          0.14540283	          0.10319959	          0.13093548	          0.12360111	          0.19677772	          0.27055814	          0.20775406	          0.20488324	          0.20408520	          0.26754084	          0.05000014	          0.10234230	          0.15131439	          0.05000080	          0.05000040	          0.05000087	          0.05772661	          0.05000150	          0.05000029	
